<?xml version="1.0" encoding="utf-8"?>
<!-- Generator: Adobe Illustrator 24.1.2, SVG Export Plug-In . SVG Version: 6.00 Build 0)  -->
<svg version="1.1" id="Warstwa_1" xmlns="http://www.w3.org/2000/svg" xmlns:xlink="http://www.w3.org/1999/xlink" x="0px" y="0px"
	 viewBox="0 0 430 430" style="enable-background:new 0 0 430 430;" xml:space="preserve">
<style type="text/css">
	.st0{fill:#ffffff;}
	.st1{fill:#ffffff;}
	.st2{fill:none;stroke:#ffffff;stroke-width:12;stroke-linecap:round;stroke-linejoin:round;stroke-miterlimit:10;}
	.st3{fill:#00A689;}
</style>
<g>
	<g>
		<path class="st0" d="M334.06,257.8V133.89c0-31.49-25.62-57.1-57.1-57.1H153.04c-31.49,0-57.1,25.62-57.1,57.1v123.84
			c0,0.03,0,0.05,0,0.08v38.31c0,31.49,25.62,57.1,57.11,57.1h123.92c31.49,0,57.1-25.61,57.1-57.1L334.06,257.8
			C334.06,257.8,334.06,257.8,334.06,257.8z M107.94,133.89c0-24.87,20.23-45.1,45.1-45.1h123.92c24.87,0,45.1,20.23,45.1,45.1
			V257.8c0,24.87-20.23,45.1-45.1,45.1H153.04c-24.87,0-45.1-20.23-45.1-45.1V133.89z M322.06,296.12c0,24.87-20.23,45.1-45.1,45.1
			H153.04c-24.87,0-45.11-20.23-45.11-45.1v-3.36c10.46,13.46,26.78,22.15,45.11,22.15h123.92c18.32,0,34.65-8.69,45.1-22.15V296.12
			z"/>
		<path class="st0" d="M131.94,157.84c3.31,0,6-2.69,6-6v-14.97c0-9.97,8.11-18.08,18.08-18.08H171c3.31,0,6-2.69,6-6s-2.69-6-6-6
			h-14.97c-16.59,0-30.08,13.5-30.08,30.08v14.97C125.94,155.16,128.63,157.84,131.94,157.84z"/>
	</g>
	<path class="st1" d="M200.99,248.9c-1.54,0-3.07-0.59-4.24-1.76c-2.34-2.34-2.34-6.14,0-8.49l35.79-35.79l-35.79-35.79
		c-2.34-2.34-2.34-6.14,0-8.49c2.34-2.34,6.14-2.34,8.49,0l40.03,40.03c2.34,2.34,2.34,6.14,0,8.49l-40.03,40.03
		C204.06,248.32,202.52,248.9,200.99,248.9z"/>
</g>
</svg>
