<?xml version="1.0" encoding="utf-8"?>
<!-- Generator: Adobe Illustrator 24.1.2, SVG Export Plug-In . SVG Version: 6.00 Build 0)  -->
<svg version="1.1" id="Warstwa_1" xmlns="http://www.w3.org/2000/svg" xmlns:xlink="http://www.w3.org/1999/xlink" x="0px" y="0px"
	 viewBox="0 0 430 430" style="enable-background:new 0 0 430 430;" xml:space="preserve">
<style type="text/css">
	.st0{fill:#ffffff;}
	.st1{fill:#fad3d1;}
	.st2{fill:#fad3d1;}
	.st3{fill:none;stroke:#ffffff;stroke-width:12;stroke-linecap:round;stroke-linejoin:round;stroke-miterlimit:10;}
	.st4{fill:#08A183;}
</style>
<g>
	<path class="st1" d="M257.02,321.68h-84.05c-3.31,0-6-2.69-6-6s2.69-6,6-6h84.05c3.31,0,6,2.69,6,6S260.33,321.68,257.02,321.68z"
		/>
	<path class="st1" d="M172.73,197.64h-33.17c-3.31,0-6-2.69-6-6s2.69-6,6-6h33.17c3.31,0,6,2.69,6,6S176.05,197.64,172.73,197.64z"
		/>
	<path class="st1" d="M290.44,197.64h-33.2c-3.31,0-6-2.69-6-6s2.69-6,6-6h33.2c3.31,0,6,2.69,6,6S293.75,197.64,290.44,197.64z"/>
	<path class="st0" d="M288.14,144.1v-29.51c0-13.36-9.81-24.46-22.61-26.49c1.2-4.39,1.85-9,1.85-13.76c0-1.15-0.05-2.28-0.12-3.41
		c-0.01-0.19-0.02-0.38-0.04-0.57c-2.04-27.03-24.67-48.4-52.21-48.4c-27.54,0-50.17,21.37-52.21,48.4
		c-0.02,0.17-0.03,0.34-0.04,0.51c-0.08,1.15-0.13,2.3-0.13,3.47c0,4.76,0.65,9.37,1.85,13.76c-12.79,2.03-22.61,13.13-22.61,26.49
		v29.51c-5.36,7.21-8.3,16.02-8.3,25.06v103.85c0,3.08,2.33,5.66,5.4,5.97c0.18,0.02,1.4,0.13,3.3,0.13
		c5.33,0,16.05-0.91,24.57-7.33l0.32,99.53c-5.08,3.32-14.52,10.58-16.92,19.92c-1.25,4.85-0.46,9.69,2.27,14.01
		c1.1,1.74,3.01,2.79,5.07,2.79h57.39c0.01,0,0.02,0,0.03,0s0.02,0,0.03,0h57.39c2.06,0,3.97-1.05,5.07-2.79
		c2.73-4.32,3.52-9.16,2.27-14.01c-2.4-9.34-11.84-16.6-16.92-19.92l0.32-99.54c8.52,6.43,19.25,7.34,24.58,7.34
		c1.9,0,3.11-0.11,3.3-0.13c3.07-0.31,5.4-2.89,5.4-5.97V169.16C296.43,160.13,293.5,151.32,288.14,144.1z M258.25,103.85
		c0.9-1.32,1.74-2.68,2.52-4.08h0.55c8.17,0,14.82,6.65,14.82,14.82v18.57c-5.06-3.06-10.75-5.04-16.77-5.75
		c-0.37-0.04-0.74-0.08-1.12-0.12V103.85z M215,33.97c15.86,0,29.61,9.19,36.21,22.53c-5.92-3.31-12.28-5.81-18.88-7.39
		c-11.27-2.7-23.38-2.7-34.64,0c-6.61,1.58-12.97,4.08-18.89,7.39C185.39,43.16,199.14,33.97,215,33.97z M174.63,73.94
		c7.46-6.36,16.34-10.89,25.84-13.16c9.44-2.26,19.62-2.26,29.07,0c9.49,2.26,18.37,6.8,25.83,13.16c0,0.14,0.01,0.27,0.01,0.41
		c0,8.79-2.83,16.93-7.62,23.56c-0.24,0.27-0.45,0.55-0.63,0.86c-7.38,9.69-19.03,15.96-32.13,15.96
		c-13.09,0-24.75-6.27-32.13-15.96c-0.19-0.31-0.4-0.59-0.63-0.86c-4.79-6.64-7.62-14.77-7.62-23.56
		C174.62,74.21,174.63,74.07,174.63,73.94z M246.25,116.35v13.52c-3.91,2.95-14.24,9.22-31.25,9.22c-17.04,0-27.37-6.28-31.25-9.21
		v-13.52c8.73,6.51,19.55,10.37,31.25,10.37C226.7,126.73,237.52,122.87,246.25,116.35z M153.86,114.59
		c0-8.17,6.65-14.82,14.82-14.82h0.55c0.78,1.4,1.62,2.76,2.52,4.08v23.44c-0.38,0.04-0.75,0.08-1.12,0.12
		c-6.01,0.72-11.71,2.69-16.76,5.75V114.59z M284.43,266.97c-4.46-0.38-10.76-1.68-15.26-5.77c-3.97-3.62-5.9-8.82-5.9-15.91v-70.87
		c0-3.11-2.36-5.66-5.39-5.97c-0.21-0.02-0.43-0.04-0.64-0.04c-3.31,0-6,2.69-6,6v73.79c0,0.02,0,0.03,0,0.04l-0.41,126.41
		c-0.01,2.19,1.19,4.21,3.1,5.27c3.19,1.77,12.65,8.2,14.21,14.31c0.16,0.63,0.22,1.22,0.19,1.8h-47.3L221,280.4c0-3.31-2.69-6-6-6
		c0,0,0,0-0.01,0s0,0-0.01,0h0c-3.31,0-6,2.69-6,6l-0.02,115.63h-47.3c-0.04-0.58,0.03-1.17,0.19-1.8
		c1.56-6.11,11.02-12.54,14.2-14.3c1.92-1.06,3.11-3.08,3.11-5.28l-0.41-125.97c0.01-0.14,0.02-0.28,0.02-0.42l-0.04-73.85
		c0-3.31-2.69-6-6-6c0,0,0,0,0,0c-2.9,0-5.32,2.07-5.88,4.81c-0.08,0.39-0.12,0.79-0.12,1.2v70.87c0,7.09-1.93,12.3-5.9,15.91
		c-4.5,4.1-10.81,5.4-15.27,5.77v-97.81c0-6.99,2.46-13.8,6.92-19.17c4.93-5.96,11.88-9.74,19.54-10.66
		c1.27-0.15,2.54-0.28,3.81-0.42c4.53,3.54,15.62,10.58,33.16,11.94v40.79c0,3.31,2.69,6,6,6s6-2.69,6-6v-40.79
		c17.54-1.36,28.63-8.41,33.16-11.94c1.27,0.14,2.54,0.27,3.8,0.42c7.65,0.91,14.58,4.68,19.52,10.62c0.02,0.02,0.04,0.05,0.06,0.07
		c4.44,5.37,6.88,12.16,6.88,19.14V266.97z"/>
	<path class="st1" d="M236.4,254.27h-42.8c-3.31,0-6-2.69-6-6v-30.73c0-3.31,2.69-6,6-6h42.8c3.31,0,6,2.69,6,6v30.73
		C242.4,251.58,239.71,254.27,236.4,254.27z M199.6,242.27h30.8v-18.73h-30.8V242.27z"/>
	<path class="st1" d="M237.41,185.27c-3.31,0-6-2.69-6-6s2.68-6,6-6h0.01c3.31,0,6,2.69,6,6S240.72,185.27,237.41,185.27z"/>
</g>
</svg>
