<?xml version="1.0" encoding="utf-8"?>
<!-- Generator: Adobe Illustrator 24.1.2, SVG Export Plug-In . SVG Version: 6.00 Build 0)  -->
<svg version="1.1" id="Warstwa_1" xmlns="http://www.w3.org/2000/svg" xmlns:xlink="http://www.w3.org/1999/xlink" x="0px" y="0px"
	 viewBox="0 0 430 430" style="enable-background:new 0 0 430 430;" xml:space="preserve">
<style type="text/css">
	.st0{fill:#ffffff;}
	.st1{fill:#f4a09c;}
	.st2{fill:#f4a09c;}
	.st3{fill:none;stroke:#ffffff;stroke-width:12;stroke-linecap:round;stroke-linejoin:round;stroke-miterlimit:10;}
	.st4{fill:#08A183;}
</style>
<g>
	<g>
		<path class="st1" d="M177.42,151.21c-3.31,0-6-2.69-6-6V88.19c0-3.31,2.69-6,6-6s6,2.69,6,6v57.02
			C183.42,148.52,180.74,151.21,177.42,151.21z"/>
		<path class="st1" d="M252.58,151.21c-3.31,0-6-2.69-6-6V88.19c0-3.31,2.69-6,6-6s6,2.69,6,6v57.02
			C258.58,148.52,255.89,151.21,252.58,151.21z"/>
	</g>
	<path class="st1" d="M327.23,206.76c-2.14-2.53-5.93-2.84-8.46-0.7l-26.89,22.8c-6.19,5.25-14.06,8.13-22.17,8.13
		c0,0-0.01,0-0.01,0l-4.92,0c-2.36-5.67-7.96-9.67-14.47-9.67h-17.99c-8.64,0-15.67,7.03-15.67,15.67c0,8.64,7.03,15.67,15.67,15.67
		h17.99c6.52,0,12.12-4,14.47-9.68l4.91,0c0.01,0,0.01,0,0.01,0c10.95,0,21.58-3.9,29.93-10.98l26.89-22.8
		C329.06,213.08,329.37,209.29,327.23,206.76z M250.31,246.68h-17.99c-2.02,0-3.67-1.65-3.67-3.67s1.65-3.67,3.67-3.67h17.99
		c2.01,0,3.65,1.63,3.67,3.64c0,0.01,0,0.02,0,0.03c0,0.01,0,0.03,0,0.04C253.96,245.05,252.33,246.68,250.31,246.68z"/>
	<path class="st0" d="M327.43,153.58h-3.24C308.62,108.24,265.55,75.57,215,75.57s-93.62,32.67-109.19,78.01h-3.24
		c-14.72,0-26.7,11.98-26.7,26.71v37.12c0,14.73,11.98,26.71,26.7,26.71h10c2.53,4.85,5.38,9.5,8.55,13.91v64.53
		c0,1.72,0.74,3.36,2.03,4.5c1.27,1.12,31.68,27.37,91.85,27.37s90.59-26.25,91.85-27.37c1.29-1.14,2.03-2.78,2.03-4.5v-64.53
		c3.16-4.42,6.02-9.06,8.55-13.91h10c14.72,0,26.7-11.98,26.7-26.71v-37.12C354.14,165.56,342.16,153.58,327.43,153.58z
		 M297.54,253.22c-18.89,25-48.86,41.18-82.54,41.18s-63.64-16.18-82.54-41.18c-0.3-0.6-0.7-1.14-1.18-1.6
		c-12.38-17.05-19.7-38-19.7-60.64c0-1.59,0.04-3.17,0.11-4.74c19.14-17.11,42.29-29.27,67.12-35.19c23.52-5.63,48.84-5.63,72.36,0
		c24.83,5.93,47.98,18.09,67.12,35.19c0.07,1.57,0.11,3.15,0.11,4.74c0,22.63-7.31,43.59-19.7,60.64
		C298.24,252.08,297.84,252.62,297.54,253.22z M215,87.57c49.41,0,90.82,34.83,101.01,81.22c-18.41-13.98-39.59-24.06-62.04-29.41
		c-25.34-6.07-52.6-6.07-77.94,0c-22.45,5.36-43.63,15.43-62.04,29.42C124.18,122.4,165.59,87.57,215,87.57z M102.57,232.13
		c-8.11,0-14.7-6.6-14.7-14.71v-37.12c0-8.06,6.51-14.62,14.54-14.7c-1.84,8.17-2.82,16.67-2.82,25.4c0,14.49,2.69,28.36,7.59,41.14
		H102.57z M296.88,319.64c-7.41,5.4-34.92,22.8-81.88,22.8c-46.99,0-74.5-17.41-81.88-22.8v-47.4
		c20.92,21.08,49.9,34.16,81.88,34.16s60.96-13.08,81.88-34.16V319.64z M342.14,217.41c0,8.11-6.6,14.71-14.7,14.71h-4.6
		c4.9-12.79,7.59-26.66,7.59-41.14c0-8.72-0.98-17.22-2.82-25.4c8.03,0.09,14.54,6.65,14.54,14.7V217.41z"/>
	<g>
		<path class="st1" d="M215,334.08c-3.31,0-6-2.69-6-6v-6.67c0-3.31,2.69-6,6-6s6,2.69,6,6v6.67
			C221,331.39,218.31,334.08,215,334.08z"/>
		<path class="st1" d="M237,331.08c-3.31,0-6-2.69-6-6v-6.67c0-3.31,2.69-6,6-6s6,2.69,6,6v6.67
			C243,328.39,240.31,331.08,237,331.08z"/>
		<path class="st1" d="M193,331.08c-3.31,0-6-2.69-6-6v-6.67c0-3.31,2.69-6,6-6s6,2.69,6,6v6.67
			C199,328.39,196.31,331.08,193,331.08z"/>
	</g>
</g>
</svg>
