<?xml version="1.0" encoding="utf-8"?>
<!-- Generator: Adobe Illustrator 24.1.2, SVG Export Plug-In . SVG Version: 6.00 Build 0)  -->
<svg version="1.1" id="Warstwa_1" xmlns="http://www.w3.org/2000/svg" xmlns:xlink="http://www.w3.org/1999/xlink" x="0px" y="0px"
	 viewBox="0 0 430 430" style="enable-background:new 0 0 430 430;" xml:space="preserve">
<style type="text/css">
	.st0{fill:#ffffff;}
	.st1{fill:#fad3d1;}
	.st2{fill-opacity:0;}
	.st3{fill:none;}
</style>
<g>
	<path class="st1" d="M292.35,204.92c-3.48,0-6.3-2.82-6.3-6.3v-60.97c0-30.14-26.24-54.67-58.5-54.67h-25.09
		c-32.26,0-58.5,24.52-58.5,54.67v60.97c0,3.48-2.82,6.3-6.3,6.3s-6.3-2.82-6.3-6.3v-60.97c0-37.09,31.9-67.27,71.1-67.27h25.09
		c39.2,0,71.1,30.18,71.1,67.27v60.97C298.65,202.1,295.83,204.92,292.35,204.92z"/>
	<path class="st0" d="M277.83,359.62H152.17c-25.31,0-45.91-20.59-45.91-45.9l-0.03-74.22c0-6.63-0.01-39.76,0.02-40.5
		c0.15-3.63,3.12-6.58,6.76-6.7c0.74-0.02,36.39-0.02,40.45-0.02h122.85c0.4,0,39.69,0,40.53,0.02c3.73,0.1,6.76,3.08,6.9,6.77
		c0.03,0.8,0.02,36.47,0.02,40.54l-0.03,74.11l0,0C323.73,339.03,303.14,359.62,277.83,359.62z M118.83,204.89
		c-0.01,6.75-0.01,19.19,0,34.61l0.03,74.22c0.01,18.36,14.95,33.3,33.31,33.3h125.65c18.36,0,33.31-14.94,33.31-33.3l0.03-74.11
		c0-15.49,0-27.98,0-34.72c-6.71-0.01-19.25-0.01-34.85-0.01H153.46C138.01,204.88,125.58,204.88,118.83,204.89z M317.44,313.72
		L317.44,313.72L317.44,313.72z"/>
	<path class="st1" d="M242.33,308.97h-54.67c-3.13,0-5.67-2.54-5.67-5.67v-54.67c0-3.13,2.54-5.67,5.67-5.67h54.67
		c3.13,0,5.67,2.54,5.67,5.67v54.67C248,306.43,245.46,308.97,242.33,308.97z M193.33,297.63h43.33V254.3h-43.33V297.63z"/>
</g>
</svg>
