<?xml version="1.0" encoding="utf-8"?>
<!-- Generator: Adobe Illustrator 24.1.2, SVG Export Plug-In . SVG Version: 6.00 Build 0)  -->
<svg version="1.1" id="Warstwa_3" xmlns="http://www.w3.org/2000/svg" xmlns:xlink="http://www.w3.org/1999/xlink" x="0px" y="0px"
	 viewBox="0 0 430 430" style="enable-background:new 0 0 430 430;" xml:space="preserve">
<style type="text/css">
	.st0{fill:#ffffff;}
	.st1{fill:#ffffff;}
	.st2{fill:none;}
	.st3{fill-opacity:0;}
</style>
<g>
	<path class="st1" d="M252.63,357.16c-0.81,0-1.63-0.16-2.41-0.49c-2.29-0.97-3.77-3.23-3.75-5.73l0.8-86.48
		c-26.44-1.16-136.49-3.2-182.37,39.48c-13.42,12.48-19.94,27.32-19.94,45.35c0,3.4-2.76,6.16-6.16,6.16s-6.16-2.76-6.16-6.16
		c0-62.3,18.71-110.76,55.61-144.03c33.87-30.53,76.95-42.11,107.13-46.44c22.78-3.27,41.54-3.06,51.09-2.6V79
		c0-2.48,1.49-4.72,3.78-5.68c2.29-0.96,4.93-0.46,6.7,1.28l138.57,136c1.18,1.16,1.85,2.74,1.85,4.4s-0.67,3.24-1.85,4.4
		l-138.57,136C255.77,356.55,254.22,357.16,252.63,357.16z M224.43,251.59c16.68,0,27.94,0.77,29.51,0.89
		c3.24,0.24,5.74,2.95,5.71,6.2l-0.72,77.51L382.41,215L258.79,93.68v69.15c0,1.75-0.74,3.41-2.04,4.58
		c-1.3,1.17-3.03,1.74-4.76,1.55c-0.94-0.1-95.06-9.07-155.56,45.52c-24.5,22.11-40.34,51.69-47.33,88.28
		c2.24-2.71,4.72-5.33,7.42-7.84C97.23,257.06,180.03,251.59,224.43,251.59z"/>
</g>
</svg>
